<?xml version="1.0" encoding="utf-8"?>
<!-- Generator: Adobe Illustrator 16.0.0, SVG Export Plug-In . SVG Version: 6.00 Build 0)  -->
<!DOCTYPE svg PUBLIC "-//W3C//DTD SVG 1.1//EN" "http://www.w3.org/Graphics/SVG/1.1/DTD/svg11.dtd">
<svg version="1.1" id="Шар_1" xmlns="http://www.w3.org/2000/svg" xmlns:xlink="http://www.w3.org/1999/xlink" x="0px" y="0px"
	 width="77px" height="32px" viewBox="0 0 77 32" enable-background="new 0 0 77 32" xml:space="preserve">
<g opacity="0.9">
	<path fill="#FFFFFF" d="M48.1,20.128c0.127,0.144,0.148,0.379,0.148,0.551c0,0.408-0.395,0.75-1.184,1.028
		c-0.406,0.149-0.734,0.224-0.982,0.224s-0.453-0.051-0.611-0.152c-0.16-0.102-0.268-0.215-0.354-0.313
		c-0.279-0.313-1.266-1.419-2.551-2.874h-0.424h-1.514v1.816c0,0.245-0.01,0.43-0.029,0.553c-0.018,0.123-0.078,0.266-0.18,0.426
		c-0.18,0.289-0.676,0.434-1.49,0.434c-0.893,0-1.414-0.198-1.566-0.594c-0.076-0.182-0.115-0.461-0.115-0.834v-8.91
		c0-0.247,0.01-0.432,0.029-0.554s0.08-0.264,0.182-0.425c0.178-0.289,0.674-0.433,1.49-0.433h4.125
		c1.119,0,2.209,0.342,3.264,1.027c0.51,0.332,0.93,0.782,1.262,1.348c0.33,0.568,0.496,1.198,0.496,1.894
		c0,1.209-0.447,2.252-1.432,2.987c-0.031,0.021-0.191,0.127-0.256,0.167c-0.133,0.085-0.227,0.126-0.348,0.177
		c-0.064,0.025-0.119,0.037-0.119,0.037C46.029,17.804,47.492,19.446,48.1,20.128z M40.629,15.751h2.445
		c0.369,0,0.738-0.119,1.107-0.354s0.553-0.587,0.553-1.059c0-0.47-0.184-0.826-0.553-1.067c-0.369-0.241-0.752-0.361-1.146-0.361
		h-2.406V15.751z"/>
	<path fill="#FFFFFF" d="M54.549,18.995h5.875c0.295,0,0.518,0.006,0.666,0.023c0.148,0.016,0.32,0.066,0.514,0.152
		c0.348,0.15,0.521,0.567,0.521,1.252c0,0.748-0.238,1.188-0.715,1.316c-0.221,0.063-0.555,0.096-1.008,0.096h-7.574
		c-0.904,0-1.432-0.203-1.588-0.609c-0.076-0.171-0.115-0.445-0.115-0.818v-8.926c0-0.545,0.123-0.917,0.367-1.115
		c0.246-0.199,0.709-0.297,1.393-0.297h7.539c0.295,0,0.518,0.007,0.666,0.024c0.148,0.014,0.32,0.066,0.514,0.152
		c0.348,0.15,0.521,0.568,0.521,1.252c0,0.75-0.238,1.188-0.715,1.316c-0.221,0.064-0.555,0.097-1.008,0.097h-5.854v1.62h2.557
		c0.297,0,0.52,0.009,0.666,0.024c0.148,0.017,0.32,0.068,0.514,0.152c0.348,0.15,0.521,0.566,0.521,1.252
		c0,0.75-0.244,1.188-0.734,1.314c-0.219,0.066-0.555,0.099-1.006,0.099h-2.518V18.995z"/>
	<path fill="#FFFFFF" d="M66.674,10.07l3.48,0.015c1.818,0,2.602,0.248,3.982,1.366C75.516,12.57,76,14.312,76,15.942
		c0,1.634-0.523,3.207-1.871,4.373c-1.35,1.167-2.113,1.52-4.031,1.52h-3.443c-0.764,0-1.24-0.135-1.43-0.402
		C65.074,21.209,65,20.866,65,20.406v-8.925c0-0.256,0.01-0.444,0.027-0.562c0.02-0.118,0.08-0.256,0.18-0.418
		C65.383,10.212,65.871,10.07,66.674,10.07z M71.684,18.329c0.621-0.598,0.988-1.49,0.988-2.357c0-0.868-0.189-1.596-0.867-2.24
		c-0.717-0.682-1.156-0.818-2.107-0.818l-1.367,0.011v6.071l1.518-0.006C70.75,18.989,71.01,18.979,71.684,18.329z"/>
	<g>
		<g>
			<g>
				<g>
					<path fill="#FFFFFF" d="M30.811,15.02c0.6,0.604,0.598,1.586-0.006,2.187L17.363,30.552c-0.604,0.599-1.59,0.598-2.193-0.004
						L1.689,17.065c-0.602-0.602-0.602-1.587,0-2.188L15.115,1.451c0.604-0.602,1.586-0.6,2.188,0.003L30.811,15.02z M21.148,7.073
						c-0.607-0.596-1.596-0.593-2.199,0.009l-7.82,7.823c-0.602,0.601-0.602,1.588,0,2.189l8.025,7.997
						c0.602,0.6,1.588,0.604,2.191,0l7.922-7.889c0.604-0.602,0.6-1.582-0.006-2.178L21.148,7.073z"/>
				</g>
			</g>
		</g>
		<g>
			<path fill="#E53935" d="M21.961,15.337c0.363,0.365,0.363,0.96,0,1.326l-4.963,4.963c-0.365,0.365-0.961,0.365-1.326,0
				l-4.965-4.963c-0.363-0.365-0.363-0.961,0-1.326l4.965-4.964c0.365-0.363,0.961-0.363,1.326,0L21.961,15.337z"/>
		</g>
	</g>
</g>
</svg>
