<?xml version="1.0" encoding="utf-8"?>
<!-- Generator: Adobe Illustrator 22.0.1, SVG Export Plug-In . SVG Version: 6.00 Build 0)  -->
<svg version="1.1" id="Layer_1" xmlns="http://www.w3.org/2000/svg" xmlns:xlink="http://www.w3.org/1999/xlink" x="0px" y="0px"
	 viewBox="0 0 212.4 56.7" style="enable-background:new 0 0 212.4 56.7;" xml:space="preserve">
<style type="text/css">
	.st0{fill:#0F1A27;}
	.st1{fill:#E22134;}
</style>
<g>
	<g>
		<path class="st0" d="M69.4,25.6c0-6.6,5.3-11.9,11.9-11.9c4.3,0,8.2,2.3,10.4,5.9c0.7,1.1,0.2,2.6-0.9,3.2
			c-1.1,0.6-2.6,0.2-3.2-0.9c-1.3-2.2-3.7-3.6-6.3-3.6c-3.9,0-7.2,3.2-7.2,7.2c0,3.9,3.3,7.2,7.2,7.2c2.5,0,4.8-1.2,6.1-3.3
			c0.7-1.1,2.2-1.4,3.3-0.7c1.1,0.7,1.4,2.2,0.7,3.3c-2.2,3.4-5.9,5.5-10,5.5C74.8,37.6,69.4,32.2,69.4,25.6z"/>
		<path class="st0" d="M120.4,25.6c0,1.3-1,2.3-2.4,2.3h-16.4c1,2.9,3.7,4.9,6.8,4.9c1.1,0,3-0.1,5.3-1.6c1.1-0.7,2.6,0,3.1,1.1
			c0.6,1.2,0,2.4-1.1,3.1c-3.1,2.1-5.6,2-7.3,2c-6.6,0-11.9-5.4-11.9-11.9c0-6.6,5.3-11.9,11.9-11.9
			C114.2,13.6,120.4,17.8,120.4,25.6z M101.6,23.2h13.7c-1-3.3-4-4.9-6.9-4.9C105.3,18.4,102.6,20.4,101.6,23.2z"/>
		<path class="st0" d="M140,16c0,1.3-1,2.4-2.4,2.4c-4,0-7.2,3.2-7.2,7.2v9.6c0,1.3-1,2.4-2.3,2.4s-2.4-1.1-2.4-2.4v-9.6
			c0-6.6,5.4-11.9,11.9-11.9C138.9,13.7,140,14.7,140,16z"/>
		<path class="st0" d="M166.1,25.6c0,1.3-1,2.3-2.4,2.3h-16.4c1,2.9,3.7,4.9,6.8,4.9c1.1,0,3-0.1,5.3-1.6c1.1-0.7,2.6,0,3.1,1.1
			c0.6,1.2,0,2.4-1.1,3.1c-3.1,2.1-5.6,2-7.3,2c-6.6,0-11.9-5.4-11.9-11.9c0-6.6,5.3-11.9,11.9-11.9
			C159.9,13.6,166.1,17.8,166.1,25.6z M147.3,23.2H161c-1-3.3-4-4.9-6.9-4.9C151,18.4,148.3,20.4,147.3,23.2z"/>
		<path class="st0" d="M185.6,16c0,1.3-1,2.4-2.4,2.4c-4,0-7.2,3.2-7.2,7.2v9.6c0,1.3-1,2.4-2.3,2.4s-2.4-1.1-2.4-2.4v-9.6
			c0-6.6,5.4-11.9,11.9-11.9C184.6,13.7,185.6,14.7,185.6,16z"/>
		<path class="st0" d="M211.4,25.8v9.3c0,1.4-1,2.4-2.4,2.4c-0.9,0-2.3-1-2.3-2.4c-2,1.7-4.3,2.4-7,2.4c-6.7,0-12-5-12-11.7
			s5.3-12,12-12C206.4,13.7,211.4,19.1,211.4,25.8z M206.8,25.8c0-4-3-7.4-7-7.4s-7.4,3.4-7.4,7.4s3.4,7,7.4,7
			C203.7,32.8,206.8,29.8,206.8,25.8z"/>
	</g>
	<g>
		<path d="M71,52.6v-4.8h-1.4v-0.6H71v-1.9h0.9v1.9h1.7v0.6h-1.7v4.7c0,0.5,0.3,0.9,0.9,0.9c0.4,0,0.7-0.2,0.9-0.3l0.3,0.6
			c-0.3,0.3-0.7,0.4-1.4,0.4C71.5,54,71,53.5,71,52.6z"/>
		<path d="M79.4,50.5c0-2,1.7-3.6,4-3.6c2.5,0,3.9,1.6,3.9,3.6v0.2h-6.9c0.1,1.5,1.3,2.7,3.2,2.7c1,0,2-0.3,2.7-0.9l0.5,0.5
			c-0.8,0.7-1.9,1.1-3.2,1.1C81.1,54,79.4,52.6,79.4,50.5z M83.3,47.5c-2,0-2.9,1.4-3,2.6h6C86.3,49,85.3,47.5,83.3,47.5z"/>
		<path d="M93.4,50.5c0-2,1.6-3.6,4-3.6c1.4,0,2.3,0.5,2.9,1.2l-0.6,0.5c-0.6-0.7-1.4-0.9-2.3-0.9c-1.9,0-3.1,1.3-3.1,2.9
			c0,1.6,1.2,2.9,3.1,2.9c0.9,0,1.7-0.3,2.3-1l0.6,0.5c-0.7,0.7-1.5,1.2-2.9,1.2C95,54,93.4,52.4,93.4,50.5z"/>
		<path d="M112.1,53.9v-4.6c0-1.3-0.8-1.7-2-1.7c-1.1,0-2.2,0.5-2.7,1.2v5.1h-0.9v-9.4h0.9v3.6c0.6-0.6,1.8-1.2,3-1.2
			c1.7,0,2.6,0.6,2.6,2.2v4.8H112.1z"/>
		<path d="M125.8,53.9v-4.6c0-1.3-0.8-1.7-2-1.7c-1.1,0-2.2,0.5-2.7,1.2v5.1h-0.9v-6.8h0.9v1c0.6-0.6,1.8-1.2,3-1.2
			c1.7,0,2.6,0.7,2.6,2.2v4.8H125.8z"/>
		<path d="M133.2,50.5c0-2,1.5-3.6,4-3.6c2.4,0,4,1.6,4,3.6c0,2-1.5,3.6-4,3.6C134.8,54,133.2,52.4,133.2,50.5z M140.2,50.5
			c0-1.5-1.1-2.9-3-2.9c-1.9,0-3,1.4-3,2.9s1.1,2.9,3,2.9C139.1,53.4,140.2,52,140.2,50.5z"/>
		<path d="M147.8,53.9v-9.4h0.9v9.4H147.8z"/>
		<path d="M155.3,50.5c0-2,1.5-3.6,4-3.6c2.4,0,4,1.6,4,3.6c0,2-1.5,3.6-4,3.6C156.8,54,155.3,52.4,155.3,50.5z M162.3,50.5
			c0-1.5-1.1-2.9-3-2.9c-1.9,0-3,1.4-3,2.9s1.1,2.9,3,2.9S162.3,52,162.3,50.5z"/>
		<path d="M169.9,55.6l0.5-0.6c0.7,0.7,1.5,1,2.8,1c1.5,0,2.8-0.6,2.8-2.2v-1.1c-0.6,0.7-1.6,1.3-2.9,1.3c-2.2,0-3.7-1.4-3.7-3.5
			c0-2.2,1.5-3.6,3.7-3.6c1.2,0,2.2,0.5,2.9,1.3v-1.1h0.9v6.7c0,2.1-1.7,2.8-3.7,2.8C171.8,56.6,170.9,56.4,169.9,55.6z M175.9,52.1
			v-3.3c-0.5-0.7-1.6-1.2-2.7-1.2c-1.8,0-2.9,1.3-2.9,2.9s1.1,2.9,2.9,2.9C174.4,53.4,175.5,52.8,175.9,52.1z"/>
		<path d="M183.7,45.4c0-0.3,0.3-0.6,0.7-0.6c0.4,0,0.7,0.2,0.7,0.6c0,0.3-0.3,0.6-0.7,0.6C184,46,183.7,45.7,183.7,45.4z
			 M183.9,53.9v-6.8h0.9v6.8H183.9z"/>
		<path d="M191.5,50.5c0-2,1.7-3.6,4-3.6c2.5,0,3.9,1.6,3.9,3.6v0.2h-6.9c0.1,1.5,1.3,2.7,3.2,2.7c1,0,2-0.3,2.7-0.9l0.5,0.5
			c-0.8,0.7-1.9,1.1-3.2,1.1C193.2,54,191.5,52.6,191.5,50.5z M195.5,47.5c-2,0-2.9,1.4-3,2.6h6C198.5,49,197.5,47.5,195.5,47.5z"/>
		<path d="M205.2,53l0.5-0.5c0.5,0.5,1.5,1,2.7,1c1.4,0,2.2-0.6,2.2-1.4c0-1.9-5.2-0.8-5.2-3.3c0-1,1.1-1.9,2.9-1.9
			c1.4,0,2.4,0.5,3,1l-0.5,0.5c-0.5-0.5-1.4-0.9-2.5-0.9c-1.3,0-2.1,0.5-2.1,1.2c0,1.7,5.2,0.7,5.2,3.3c0,1.1-1,2-3.1,2
			C207.1,54,206,53.7,205.2,53z"/>
	</g>
</g>
<g>
	<path class="st1" d="M40.9,45.2c-17.5,0.4-32-13.5-32.5-30.9c-0.1-1.9,0.1-3.8,0.4-5.7c0-0.1-0.1-0.2-0.3-0.1
		C2.9,14.4-0.1,22.8,1.4,32c1.8,10.7,10.1,19.5,20.8,21.7s20.6-1.9,26.6-9.3c0.1-0.1,0-0.3-0.1-0.2c-1.9,0.5-3.7,0.9-5.7,1.1
		C42.3,45.2,41.6,45.2,40.9,45.2z"/>
	<path class="st1" d="M27.4,0.3c-0.1,0.1-0.3,0.3-0.5,0.5c-3.4,3.5-5.2,8.2-5.1,13.1c0.3,10.1,8.7,18.2,18.8,17.9
		c5.6-0.1,10.6-2.8,13.9-6.9c0.1-0.2,0.3-0.5,0.2-0.7C53.2,10.8,41.8,0.3,27.9,0.3C27.7,0.3,27.5,0.3,27.4,0.3"/>
</g>
</svg>
